# xmcd
#
# Track frame offsets: 
#        150
#        14402
#        28220
#        41762
#        53121
#        67224
#        80640
#        91662
#        105376
#        119688
#        135991
#        154734
#        168785
#        179896
#        191606
#        203643
#        214414
#        225668
#        240547
#        255210
#        270204
#
# Disc length: 3787 seconds
#
# Revision: 1
# Processed by: cddbd v1.5.2PL0 Copyright (c) Steve Scherf et al.
# Submitted via: ExactAudioCopyFreeDBPlugin 1.0
#
DISCID=1f0ec915
DTITLE=JAZZ VOCAL The Best Of Best - JAZZ VOCAL The Best Of Best (DISC
DTITLE=1)
DYEAR=2010
DGENRE=Jazz
TTITLE0=Taking A Chance On Love - Ella Fitzgerald
TTITLE1=But Not For Me - Chet Baker
TTITLE2=Body And Soul - Billie Holiday
TTITLE3=You Didn't Want Me Then - Dinah Washington
TTITLE4=I Can't Give You Anything But Love - Mel Torme
TTITLE5=(If You Can't Sing It) You'll Have To Swing It - Ella Fitzgera
TTITLE5=ld
TTITLE6=I Cried For You - Sarah Vaughan
TTITLE7=I've Grown Accustomed To Her Face - Tony Bennett
TTITLE8=I Want To Cry - Dinah Washington
TTITLE9=A Sinner Kissed An Angel - Sarah Vaughan
TTITLE10=Time After Time (Live) - Chet Baker
TTITLE11=The Man I Love - Billie Holiday
TTITLE12=I Get A Kick Out Of You - Peggy Lee
TTITLE13=Puttin' On The Ritz - Fred Astaire
TTITLE14=Since I Fell For You - Dinah Washington
TTITLE15=Just One More Chance - Peggy Lee
TTITLE16=I'm Getting Sentimental Over You - Mel Torme
TTITLE17=Undecided - Ella Fitzgerald
TTITLE18=Am I Blue? - Dinah Washington
TTITLE19=Cheek To Cheek - Fred Astaire
TTITLE20=Taking A Chance On Love - Ella Fitzgerald
EXTD=YEAR: 2010
EXTT0=
EXTT1=
EXTT2=
EXTT3=
EXTT4=
EXTT5=
EXTT6=
EXTT7=
EXTT8=
EXTT9=
EXTT10=
EXTT11=
EXTT12=
EXTT13=
EXTT14=
EXTT15=
EXTT16=
EXTT17=
EXTT18=
EXTT19=
EXTT20=
PLAYORDER=
